<svg xmlns="http://www.w3.org/2000/svg" xmlns:xlink="http://www.w3.org/1999/xlink" xmlns:lucid="lucid" width="1760" height="1116"><g transform="translate(0 0)" lucid:page-tab-id="0_0"><path d="M453.15 76a8 8 0 0 1 8-8h836.75a8 8 0 0 1 8 8v25.16a8 8 0 0 1-8 8H461.15a8 8 0 0 1-8-8z" stroke="#000" stroke-opacity="0" stroke-width="2" fill="#fff" fill-opacity="0"/><use xlink:href="#a" transform="matrix(1,0,0,1,457.1465527853429,71.99999999994924) translate(353.07975308641977 25.782777777777778)"/><use xlink:href="#b" transform="matrix(1,0,0,1,457.1465527853429,71.99999999994924) translate(415.57604938271606 25.782777777777778)"/><path d="M628.63 107.8h505.86M628.66 107.8h-1.02M1134.47 107.8h1.02" stroke="#a9afb8" stroke-width="2" fill="none"/><path d="M453.15 117.16a8 8 0 0 1 8-8h837.7a8 8 0 0 1 8 8V120a8 8 0 0 1-8 8h-837.7a8 8 0 0 1-8-8z" stroke="#000" stroke-opacity="0" stroke-width="2" fill="#fff" fill-opacity="0"/><path d="M60 288a8 8 0 0 1 8-8h344a8 8 0 0 1 8 8v376a8 8 0 0 1-8 8H68a8 8 0 0 1-8-8z" fill="#fff"/><path d="M60 288a8 8 0 0 1 8-8h344a8 8 0 0 1 8 8v376a8 8 0 0 1-8 8H68a8 8 0 0 1-8-8zM60 320h360M120 320v352M271.94 320v352" stroke="#3a414a" fill="none"/><use xlink:href="#c" transform="matrix(1,0,0,1,70,280) translate(146.55 23.6)"/><use xlink:href="#d" transform="matrix(1,0,0,1,65,322.5) translate(13 17.1)"/><use xlink:href="#e" transform="matrix(1,0,0,1,125,322.5) translate(59.525 17.1)"/><use xlink:href="#f" transform="matrix(1,0,0,1,276.9435300301674,322.5) translate(39.55 17.1)"/><use xlink:href="#g" transform="matrix(1,0,0,1,125,354.5) translate(49.574999999999996 17.1)"/><use xlink:href="#f" transform="matrix(1,0,0,1,276.9435300301674,354.5) translate(39.55 17.1)"/><use xlink:href="#h" transform="matrix(1,0,0,1,125,386.5) translate(32.55 17.1)"/><use xlink:href="#f" transform="matrix(1,0,0,1,276.9435300301674,386.5) translate(39.55 17.1)"/><use xlink:href="#i" transform="matrix(1,0,0,1,125,418.5) translate(37.075 17.1)"/><use xlink:href="#f" transform="matrix(1,0,0,1,276.9435300301674,418.5) translate(39.55 17.1)"/><use xlink:href="#j" transform="matrix(1,0,0,1,125,450.5) translate(23.525 17.1)"/><use xlink:href="#f" transform="matrix(1,0,0,1,276.9435300301674,450.5) translate(39.55 17.1)"/><use xlink:href="#k" transform="matrix(1,0,0,1,125,482.5) translate(43.025 17.1)"/><use xlink:href="#l" transform="matrix(1,0,0,1,276.9435300301674,482.5) translate(47.025 17.1)"/><use xlink:href="#m" transform="matrix(1,0,0,1,125,514.5) translate(13.524999999999999 17.1)"/><use xlink:href="#n" transform="matrix(1,0,0,1,276.9435300301674,514.5) translate(60.025 17.1)"/><use xlink:href="#o" transform="matrix(1,0,0,1,125,546.5) translate(31.049999999999997 17.1)"/><use xlink:href="#p" transform="matrix(1,0,0,1,276.9435300301674,546.5) translate(52 17.1)"/><use xlink:href="#q" transform="matrix(1,0,0,1,125,578.5) translate(28.525 17.1)"/><use xlink:href="#r" transform="matrix(1,0,0,1,276.9435300301674,578.5) translate(35.05 17.1)"/><use xlink:href="#s" transform="matrix(1,0,0,1,125,610.5) translate(26 17.1)"/><use xlink:href="#r" transform="matrix(1,0,0,1,276.9435300301674,610.5) translate(35.05 17.1)"/><use xlink:href="#t" transform="matrix(1,0,0,1,125,642.5) translate(29.025 17.1)"/><use xlink:href="#f" transform="matrix(1,0,0,1,276.9435300301674,642.5) translate(39.55 17.1)"/><path d="M1360 148a8 8 0 0 1 8-8h324a8 8 0 0 1 8 8v248a8 8 0 0 1-8 8h-324a8 8 0 0 1-8-8z" fill="#fff"/><path d="M1360 148a8 8 0 0 1 8-8h324a8 8 0 0 1 8 8v248a8 8 0 0 1-8 8h-324a8 8 0 0 1-8-8zM1360 180h340M1420 180v224M1607.68 180v224" stroke="#3a414a" fill="none"/><use xlink:href="#u" transform="matrix(1,0,0,1,1370,140) translate(130.05 23.6)"/><use xlink:href="#d" transform="matrix(1,0,0,1,1365,182.5) translate(13 17.1)"/><use xlink:href="#v" transform="matrix(1,0,0,1,1425,182.5) translate(82.025 17.1)"/><use xlink:href="#f" transform="matrix(1,0,0,1,1612.6780231923576,182.5) translate(11.549999999999997 17.1)"/><use xlink:href="#w" transform="matrix(1,0,0,1,1365,214.5) translate(13.524999999999999 17.1)"/><use xlink:href="#x" transform="matrix(1,0,0,1,1425,214.5) translate(15.649999999999991 17.1)"/><use xlink:href="#f" transform="matrix(1,0,0,1,1612.6780231923576,214.5) translate(11.549999999999997 17.1)"/><use xlink:href="#g" transform="matrix(1,0,0,1,1425,246.5) translate(67.57499999999999 17.1)"/><use xlink:href="#f" transform="matrix(1,0,0,1,1612.6780231923576,246.5) translate(11.549999999999997 17.1)"/><use xlink:href="#h" transform="matrix(1,0,0,1,1425,278.5) translate(50.55 17.1)"/><use xlink:href="#f" transform="matrix(1,0,0,1,1612.6780231923576,278.5) translate(11.549999999999997 17.1)"/><use xlink:href="#q" transform="matrix(1,0,0,1,1425,310.5) translate(46.525 17.1)"/><use xlink:href="#r" transform="matrix(1,0,0,1,1612.6780231923576,310.5) translate(7.049999999999997 17.1)"/><use xlink:href="#s" transform="matrix(1,0,0,1,1425,342.5) translate(44 17.1)"/><use xlink:href="#r" transform="matrix(1,0,0,1,1612.6780231923576,342.5) translate(7.049999999999997 17.1)"/><use xlink:href="#t" transform="matrix(1,0,0,1,1425,374.5) translate(47.025 17.1)"/><use xlink:href="#r" transform="matrix(1,0,0,1,1612.6780231923576,374.5) translate(7.049999999999997 17.1)"/><path d="M880 244a8 8 0 0 1 8-8h384a8 8 0 0 1 8 8v248a8 8 0 0 1-8 8H888a8 8 0 0 1-8-8z" fill="#fff"/><path d="M880 244a8 8 0 0 1 8-8h384a8 8 0 0 1 8 8v248a8 8 0 0 1-8 8H888a8 8 0 0 1-8-8zM880 276h400M940 276v224M1134.26 276v224" stroke="#3a414a" fill="none"/><use xlink:href="#y" transform="matrix(1,0,0,1,890,236.00000000009106) translate(128.625 23.6)"/><use xlink:href="#d" transform="matrix(1,0,0,1,885,278.50000000009106) translate(13 17.1)"/><use xlink:href="#v" transform="matrix(1,0,0,1,945,278.50000000009106) translate(85.525 17.1)"/><use xlink:href="#f" transform="matrix(1,0,0,1,1139.2592569974931,278.50000000009106) translate(38.05 17.1)"/><use xlink:href="#g" transform="matrix(1,0,0,1,945,310.50000000009106) translate(71.07499999999999 17.1)"/><use xlink:href="#f" transform="matrix(1,0,0,1,1139.2592569974931,310.50000000009106) translate(38.05 17.1)"/><use xlink:href="#j" transform="matrix(1,0,0,1,945,342.50000000009106) translate(45.025 17.1)"/><use xlink:href="#f" transform="matrix(1,0,0,1,1139.2592569974931,342.50000000009106) translate(38.05 17.1)"/><use xlink:href="#z" transform="matrix(1,0,0,1,945,374.50000000009106) translate(70.025 17.1)"/><use xlink:href="#f" transform="matrix(1,0,0,1,1139.2592569974931,374.50000000009106) translate(38.05 17.1)"/><use xlink:href="#q" transform="matrix(1,0,0,1,945,406.50000000009106) translate(50.025 17.1)"/><use xlink:href="#r" transform="matrix(1,0,0,1,1139.2592569974931,406.50000000009106) translate(33.55 17.1)"/><use xlink:href="#s" transform="matrix(1,0,0,1,945,438.50000000009106) translate(47.5 17.1)"/><use xlink:href="#r" transform="matrix(1,0,0,1,1139.2592569974931,438.50000000009106) translate(33.55 17.1)"/><use xlink:href="#t" transform="matrix(1,0,0,1,945,470.50000000009106) translate(50.525 17.1)"/><use xlink:href="#r" transform="matrix(1,0,0,1,1139.2592569974931,470.50000000009106) translate(33.55 17.1)"/><path d="M480 168a8 8 0 0 1 8-8h284a8 8 0 0 1 8 8v408a8 8 0 0 1-8 8H488a8 8 0 0 1-8-8z" fill="#fff"/><path d="M480 168a8 8 0 0 1 8-8h284a8 8 0 0 1 8 8v408a8 8 0 0 1-8 8H488a8 8 0 0 1-8-8zM480 200h300M540 200v384M698.87 200v384" stroke="#3a414a" fill="none"/><use xlink:href="#A" transform="matrix(1,0,0,1,490,160) translate(97.525 23.6)"/><use xlink:href="#d" transform="matrix(1,0,0,1,485,202.5) translate(13 17.1)"/><use xlink:href="#v" transform="matrix(1,0,0,1,545,202.5) translate(67.525 17.1)"/><use xlink:href="#f" transform="matrix(1,0,0,1,703.8651369546155,202.5) translate(6.049999999999997 17.1)"/><use xlink:href="#w" transform="matrix(1,0,0,1,485,234.5) translate(13.524999999999999 17.1)"/><use xlink:href="#x" transform="matrix(1,0,0,1,545,234.5) translate(1.1499999999999915 17.1)"/><use xlink:href="#f" transform="matrix(1,0,0,1,703.8651369546155,234.5) translate(6.049999999999997 17.1)"/><use xlink:href="#w" transform="matrix(1,0,0,1,485,266.5) translate(13.524999999999999 17.1)"/><use xlink:href="#B" transform="matrix(1,0,0,1,545,266.5) translate(40.55 17.1)"/><use xlink:href="#f" transform="matrix(1,0,0,1,703.8651369546155,266.5) translate(6.049999999999997 17.1)"/><use xlink:href="#C" transform="matrix(1,0,0,1,545,298.5) translate(9.574999999999989 17.1)"/><use xlink:href="#D" transform="matrix(1,0,0,1,703.8651369546155,298.5) translate(4.524999999999999 17.1)"/><use xlink:href="#E" transform="matrix(1,0,0,1,545,330.5) translate(48.575 17.1)"/><use xlink:href="#f" transform="matrix(1,0,0,1,703.8651369546155,330.5) translate(6.049999999999997 17.1)"/><use xlink:href="#F" transform="matrix(1,0,0,1,545,362.5) translate(61.025 17.1)"/><use xlink:href="#f" transform="matrix(1,0,0,1,703.8651369546155,362.5) translate(6.049999999999997 17.1)"/><use xlink:href="#G" transform="matrix(1,0,0,1,545,394.5) translate(40.55 17.1)"/><use xlink:href="#f" transform="matrix(1,0,0,1,703.8651369546155,394.5) translate(6.049999999999997 17.1)"/><use xlink:href="#H" transform="matrix(1,0,0,1,545,426.5) translate(38.05 17.1)"/><use xlink:href="#I" transform="matrix(1,0,0,1,703.8651369546155,426.5) translate(4.074999999999996 17.1)"/><use xlink:href="#J" transform="matrix(1,0,0,1,545,458.5) translate(45.55 17.1)"/><use xlink:href="#I" transform="matrix(1,0,0,1,703.8651369546155,458.5) translate(4.074999999999996 17.1)"/><use xlink:href="#q" transform="matrix(1,0,0,1,545,490.5) translate(32.025 17.1)"/><use xlink:href="#r" transform="matrix(1,0,0,1,703.8651369546155,490.5) translate(1.5499999999999972 17.1)"/><use xlink:href="#s" transform="matrix(1,0,0,1,545,522.5) translate(29.5 17.1)"/><use xlink:href="#r" transform="matrix(1,0,0,1,703.8651369546155,522.5) translate(1.5499999999999972 17.1)"/><use xlink:href="#t" transform="matrix(1,0,0,1,545,554.5) translate(32.525 17.1)"/><use xlink:href="#r" transform="matrix(1,0,0,1,703.8651369546155,554.5) translate(1.5499999999999972 17.1)"/><path d="M440.4 336a9.56 9.56 0 0 0 9.57-9.56v-36.88a9.56 9.56 0 0 1 9.56-9.56" stroke="#3a414a" fill="none"/><path d="M440.4 346v-20M420.4 336h20M459.53 270v20M479.53 280h-20" stroke="#3a414a" fill="#fff"/><path d="M859.52 292a9.52 9.52 0 0 1-9.52-9.52V208a12 12 0 0 1 12-12h445.52a12 12 0 0 1 12 12v7.88a12 12 0 0 0 12 12h8" stroke="#3a414a" fill="none"/><path d="M859.52 282v20M879.52 292h-20M1339.53 217.88v20M1359.53 227.88h-20" stroke="#3a414a" fill="#fff"/><path d="M859.52 292h-17.55a12 12 0 0 1-12-12v-20a12 12 0 0 0-12-12h-17.55" stroke="#3a414a" fill="none"/><path d="M859.52 282v20M879.52 292h-20M800.42 258v-20M780.42 248h20" stroke="#3a414a" fill="#fff"/><path d="M1360 488a8 8 0 0 1 8-8h314a8 8 0 0 1 8 8v248a8 8 0 0 1-8 8h-314a8 8 0 0 1-8-8z" fill="#fff"/><path d="M1360 488a8 8 0 0 1 8-8h314a8 8 0 0 1 8 8v248a8 8 0 0 1-8 8h-314a8 8 0 0 1-8-8zM1360 520h330M1420 520v224M1597.68 520v224" stroke="#3a414a" fill="none"/><use xlink:href="#K" transform="matrix(1,0,0,1,1370,480) translate(119.2 23.6)"/><use xlink:href="#d" transform="matrix(1,0,0,1,1365,522.5) translate(13 17.1)"/><use xlink:href="#v" transform="matrix(1,0,0,1,1425,522.5) translate(77.025 17.1)"/><use xlink:href="#f" transform="matrix(1,0,0,1,1602.6780231923576,522.5) translate(11.549999999999997 17.1)"/><use xlink:href="#w" transform="matrix(1,0,0,1,1365,554.5) translate(13.524999999999999 17.1)"/><use xlink:href="#x" transform="matrix(1,0,0,1,1425,554.5) translate(10.649999999999991 17.1)"/><use xlink:href="#f" transform="matrix(1,0,0,1,1602.6780231923576,554.5) translate(11.549999999999997 17.1)"/><use xlink:href="#z" transform="matrix(1,0,0,1,1425,586.5) translate(61.525 17.1)"/><use xlink:href="#f" transform="matrix(1,0,0,1,1602.6780231923576,586.5) translate(11.549999999999997 17.1)"/><use xlink:href="#L" transform="matrix(1,0,0,1,1425,618.5) translate(64.5 17.1)"/><use xlink:href="#n" transform="matrix(1,0,0,1,1602.6780231923576,618.5) translate(32.025 17.1)"/><use xlink:href="#M" transform="matrix(1,0,0,1,1425,650.5) translate(63 17.1)"/><use xlink:href="#n" transform="matrix(1,0,0,1,1602.6780231923576,650.5) translate(32.025 17.1)"/><use xlink:href="#q" transform="matrix(1,0,0,1,1425,682.5) translate(41.525 17.1)"/><use xlink:href="#r" transform="matrix(1,0,0,1,1602.6780231923576,682.5) translate(7.049999999999997 17.1)"/><use xlink:href="#s" transform="matrix(1,0,0,1,1425,714.5) translate(39 17.1)"/><use xlink:href="#r" transform="matrix(1,0,0,1,1602.6780231923576,714.5) translate(7.049999999999997 17.1)"/><path d="M100 728a8 8 0 0 1 8-8h324a8 8 0 0 1 8 8v248a8 8 0 0 1-8 8H108a8 8 0 0 1-8-8z" fill="#fff"/><path d="M100 728a8 8 0 0 1 8-8h324a8 8 0 0 1 8 8v248a8 8 0 0 1-8 8H108a8 8 0 0 1-8-8zM100 760h340M160 760v224M332 760v224" stroke="#3a414a" fill="none"/><use xlink:href="#N" transform="matrix(1,0,0,1,110,720) translate(91.1 23.6)"/><use xlink:href="#d" transform="matrix(1,0,0,1,105,762.5) translate(13 17.1)"/><use xlink:href="#v" transform="matrix(1,0,0,1,165,762.5) translate(74.525 17.1)"/><use xlink:href="#f" transform="matrix(1,0,0,1,337.0000000000001,762.5) translate(19.049999999999997 17.1)"/><use xlink:href="#w" transform="matrix(1,0,0,1,105,794.5) translate(13.524999999999999 17.1)"/><use xlink:href="#O" transform="matrix(1,0,0,1,165,794.5) translate(38.05 17.1)"/><use xlink:href="#f" transform="matrix(1,0,0,1,337.0000000000001,794.5) translate(19.049999999999997 17.1)"/><use xlink:href="#w" transform="matrix(1,0,0,1,105,826.5) translate(13.524999999999999 17.1)"/><use xlink:href="#B" transform="matrix(1,0,0,1,165,826.5) translate(47.55 17.1)"/><use xlink:href="#f" transform="matrix(1,0,0,1,337.0000000000001,826.5) translate(19.049999999999997 17.1)"/><use xlink:href="#P" transform="matrix(1,0,0,1,165,858.5) translate(23.049999999999997 17.1)"/><use xlink:href="#f" transform="matrix(1,0,0,1,337.0000000000001,858.5) translate(19.049999999999997 17.1)"/><use xlink:href="#Q" transform="matrix(1,0,0,1,165,890.5) translate(57.5 17.1)"/><use xlink:href="#f" transform="matrix(1,0,0,1,337.0000000000001,890.5) translate(19.049999999999997 17.1)"/><use xlink:href="#q" transform="matrix(1,0,0,1,165,922.5) translate(39.025 17.1)"/><use xlink:href="#r" transform="matrix(1,0,0,1,337.0000000000001,922.5) translate(14.549999999999997 17.1)"/><use xlink:href="#t" transform="matrix(1,0,0,1,165,954.5) translate(39.525 17.1)"/><use xlink:href="#r" transform="matrix(1,0,0,1,337.0000000000001,954.5) translate(14.549999999999997 17.1)"/><path d="M1300.42 292h7.58a12 12 0 0 1 12 12v252a12 12 0 0 0 12 12h8.12" stroke="#3a414a" fill="none"/><path d="M1300.42 302v-20M1280.42 292h20" stroke="#3a414a" fill="#fff"/><path d="M1359.3 578l-20-10 20-10" stroke="#3a414a" fill="#fff" fill-opacity="0"/><path d="M1359.3 568h-20" stroke="#3a414a" fill="#fff"/><path d="M560 732.18a8 8 0 0 1 8-8h264a8 8 0 0 1 8 8v280a8 8 0 0 1-8 8H568a8 8 0 0 1-8-8z" fill="#fff"/><path d="M560 732.18a8 8 0 0 1 8-8h264a8 8 0 0 1 8 8v280a8 8 0 0 1-8 8H568a8 8 0 0 1-8-8zM560 764.18h280M620 764.18v256M757.23 764.18v256" stroke="#3a414a" fill="none"/><use xlink:href="#R" transform="matrix(1,0,0,1,570,724.1844248823227) translate(58.55 23.6)"/><use xlink:href="#d" transform="matrix(1,0,0,1,565,766.6844248823227) translate(13 17.1)"/><use xlink:href="#v" transform="matrix(1,0,0,1,625,766.6844248823227) translate(57.025 17.1)"/><use xlink:href="#f" transform="matrix(1,0,0,1,762.228372126449,766.6844248823227) translate(6.549999999999997 17.1)"/><use xlink:href="#w" transform="matrix(1,0,0,1,565,798.6844248823227) translate(13.524999999999999 17.1)"/><use xlink:href="#S" transform="matrix(1,0,0,1,625,798.6844248823227) translate(21.549999999999997 17.1)"/><use xlink:href="#f" transform="matrix(1,0,0,1,762.228372126449,798.6844248823227) translate(6.549999999999997 17.1)"/><use xlink:href="#w" transform="matrix(1,0,0,1,565,830.6844248823227) translate(13.524999999999999 17.1)"/><use xlink:href="#B" transform="matrix(1,0,0,1,625,830.6844248823227) translate(30.049999999999997 17.1)"/><use xlink:href="#f" transform="matrix(1,0,0,1,762.228372126449,830.6844248823227) translate(6.549999999999997 17.1)"/><use xlink:href="#T" transform="matrix(1,0,0,1,625,862.6844248823227) translate(39 17.1)"/><use xlink:href="#n" transform="matrix(1,0,0,1,762.228372126449,862.6844248823227) translate(27.025 17.1)"/><use xlink:href="#Q" transform="matrix(1,0,0,1,625,894.6844248823227) translate(40 17.1)"/><use xlink:href="#f" transform="matrix(1,0,0,1,762.228372126449,894.6844248823227) translate(6.549999999999997 17.1)"/><use xlink:href="#q" transform="matrix(1,0,0,1,625,926.6844248823227) translate(21.525 17.1)"/><use xlink:href="#r" transform="matrix(1,0,0,1,762.228372126449,926.6844248823227) translate(2.049999999999997 17.1)"/><use xlink:href="#s" transform="matrix(1,0,0,1,625,958.6844248823227) translate(19 17.1)"/><use xlink:href="#r" transform="matrix(1,0,0,1,762.228372126449,958.6844248823227) translate(2.049999999999997 17.1)"/><use xlink:href="#t" transform="matrix(1,0,0,1,625,990.6844248823227) translate(22.025 17.1)"/><use xlink:href="#r" transform="matrix(1,0,0,1,762.228372126449,990.6844248823227) translate(2.049999999999997 17.1)"/><path d="M945 654.4a8 8 0 0 1 8-8h304a8 8 0 0 1 8 8v376a8 8 0 0 1-8 8H953a8 8 0 0 1-8-8z" fill="#fff"/><path d="M945 654.4a8 8 0 0 1 8-8h304a8 8 0 0 1 8 8v376a8 8 0 0 1-8 8H953a8 8 0 0 1-8-8zM945 686.4h320M1005 686.4v352M1185.7 686.4v352" stroke="#3a414a" fill="none"/><use xlink:href="#U" transform="matrix(1,0,0,1,955,646.3881134931934) translate(113.525 23.6)"/><use xlink:href="#d" transform="matrix(1,0,0,1,950,688.8881134931934) translate(13 17.1)"/><use xlink:href="#v" transform="matrix(1,0,0,1,1010,688.8881134931934) translate(78.525 17.1)"/><use xlink:href="#f" transform="matrix(1,0,0,1,1190.7060234058479,688.8881134931934) translate(5.049999999999997 17.1)"/><use xlink:href="#w" transform="matrix(1,0,0,1,950,720.8881134931934) translate(13.524999999999999 17.1)"/><use xlink:href="#V" transform="matrix(1,0,0,1,1010,720.8881134931934) translate(43.05 17.1)"/><use xlink:href="#f" transform="matrix(1,0,0,1,1190.7060234058479,720.8881134931934) translate(5.049999999999997 17.1)"/><use xlink:href="#W" transform="matrix(1,0,0,1,1010,752.8881134931934) translate(27.549999999999997 17.1)"/><use xlink:href="#f" transform="matrix(1,0,0,1,1190.7060234058479,752.8881134931934) translate(5.049999999999997 17.1)"/><use xlink:href="#X" transform="matrix(1,0,0,1,1010,784.8881134931934) translate(52.525 17.1)"/><use xlink:href="#n" transform="matrix(1,0,0,1,1190.7060234058479,784.8881134931934) translate(25.525 17.1)"/><use xlink:href="#L" transform="matrix(1,0,0,1,1010,816.8881134931934) translate(66 17.1)"/><use xlink:href="#n" transform="matrix(1,0,0,1,1190.7060234058479,816.8881134931934) translate(25.525 17.1)"/><use xlink:href="#Y" transform="matrix(1,0,0,1,1010,848.8881134931934) translate(53.05 17.1)"/><use xlink:href="#Z" transform="matrix(1,0,0,1,1190.7060234058479,848.8881134931934) translate(18.025 17.1)"/><use xlink:href="#aa" transform="matrix(1,0,0,1,1010,880.8881134931934) translate(32.525 17.1)"/><use xlink:href="#p" transform="matrix(1,0,0,1,1190.7060234058479,880.8881134931934) translate(17.5 17.1)"/><use xlink:href="#ab" transform="matrix(1,0,0,1,1010,912.8881134931934) translate(32.55 17.1)"/><use xlink:href="#f" transform="matrix(1,0,0,1,1190.7060234058479,912.8881134931934) translate(5.049999999999997 17.1)"/><use xlink:href="#ac" transform="matrix(1,0,0,1,1010,944.8881134931934) translate(35.025 17.1)"/><use xlink:href="#f" transform="matrix(1,0,0,1,1190.7060234058479,944.8881134931934) translate(5.049999999999997 17.1)"/><use xlink:href="#q" transform="matrix(1,0,0,1,1010,976.8881134931934) translate(43.025 17.1)"/><use xlink:href="#r" transform="matrix(1,0,0,1,1190.7060234058479,976.8881134931934) translate(0.5499999999999972 17.1)"/><use xlink:href="#s" transform="matrix(1,0,0,1,1010,1008.8881134931934) translate(40.5 17.1)"/><use xlink:href="#r" transform="matrix(1,0,0,1,1190.7060234058479,1008.8881134931934) translate(0.5499999999999972 17.1)"/><path d="M39.5 336h-8a12 12 0 0 0-12 12v480a12 12 0 0 0 12 12h48.63" stroke="#3a414a" fill="none"/><path d="M39.5 326v20M59.5 336h-20" stroke="#3a414a" fill="#fff"/><path d="M99.32 850l-20-10 20-10" stroke="#3a414a" fill="#fff" fill-opacity="0"/><path d="M99.32 840h-20" stroke="#3a414a" fill="#fff"/><path d="M859.84 812.18H888a12 12 0 0 0 12-12v-85.8a12 12 0 0 1 12-12h12.5" stroke="#3a414a" fill="none"/><path d="M840.65 802.18l20 10-20 10" stroke="#3a414a" fill="#fff" fill-opacity="0"/><path d="M840.65 812.18h20M924.5 692.4v20M944.5 702.4h-20" stroke="#3a414a" fill="#fff"/><path d="M539.52 780.18h-27.54a12 12 0 0 0-12 12V796a12 12 0 0 1-12 12h-27.55" stroke="#3a414a" fill="none"/><path d="M539.52 770.18v20M559.52 780.18h-20M460.43 818v-20M440.43 808h20" stroke="#3a414a" fill="#fff"/><path d="M1710.42 535.8h8a12 12 0 0 1 12 12V772a12 12 0 0 1-12 12h-401a12 12 0 0 1-12-12v-25.6a12 12 0 0 0-12-12h-8.6" stroke="#3a414a" fill="none"/><path d="M1710.42 545.8v-20M1690.42 535.8h20" stroke="#3a414a" fill="#fff"/><path d="M1265.65 724.4l20 10-20 10" stroke="#3a414a" fill="#fff" fill-opacity="0"/><path d="M1265.65 734.4h20" stroke="#3a414a" fill="#fff"/><path d="M539.54 844.1H502a12 12 0 0 1-12-12V601.87a12 12 0 0 0-12-12h-16a12 12 0 0 1-12-12V345.26a9.6 9.6 0 0 0-9.6-9.58" stroke="#3a414a" fill="none"/><path d="M539.54 834.1v20M559.54 844.1h-20M440.4 345.68v-20M420.4 335.68h20" stroke="#3a414a" fill="#fff"/><defs><path fill="#a9afb8" d="M24 0v-248h195v40H76v63h132v40H76v65h150V0H24" id="ad"/><path fill="#a9afb8" d="M240-174c0 40-23 61-54 70L253 0h-59l-57-94H76V0H24v-248c93 4 217-23 216 74zM76-134c48-2 112 12 112-38 0-48-66-32-112-35v73" id="ae"/><path fill="#a9afb8" d="M24-248c120-7 223 5 221 122C244-46 201 0 124 0H24v-248zM76-40c74 7 117-18 117-86 0-67-45-88-117-82v168" id="af"/><g id="a"><use transform="matrix(0.0728395061728395,0,0,0.0728395061728395,0,0)" xlink:href="#ad"/><use transform="matrix(0.0728395061728395,0,0,0.0728395061728395,17.48148148148148,0)" xlink:href="#ae"/><use transform="matrix(0.0728395061728395,0,0,0.0728395061728395,36.34691358024691,0)" xlink:href="#af"/></g><path fill="#a9afb8" d="M147 0H94L2-248h55l64 206c17-72 42-137 63-206h54" id="ag"/><path fill="#a9afb8" d="M133-34C117-15 103 5 69 4 32 3 11-16 11-54c-1-60 55-63 116-61 1-26-3-47-28-47-18 1-26 9-28 27l-52-2c7-38 36-58 82-57s74 22 75 68l1 82c-1 14 12 18 25 15v27c-30 8-71 5-69-32zm-48 3c29 0 43-24 42-57-32 0-66-3-65 30 0 17 8 27 23 27" id="ah"/><path fill="#a9afb8" d="M147 0L96-86 75-71V0H25v-261h50v150l67-79h53l-66 74L201 0h-54" id="ai"/><path fill="#a9afb8" d="M137-138c1-29-70-34-71-4 15 46 118 7 119 86 1 83-164 76-172 9l43-7c4 19 20 25 44 25 33 8 57-30 24-41C81-84 22-81 20-136c-2-80 154-74 161-7" id="aj"/><path fill="#a9afb8" d="M25-224v-37h50v37H25zM25 0v-190h50V0H25" id="ak"/><path fill="#a9afb8" d="M135-194c87-1 58 113 63 194h-50c-7-57 23-157-34-157-59 0-34 97-39 157H25l-1-190h47c2 12-1 28 3 38 12-26 28-41 61-42" id="al"/><g id="b"><use transform="matrix(0.0728395061728395,0,0,0.0728395061728395,0,0)" xlink:href="#ag"/><use transform="matrix(0.0728395061728395,0,0,0.0728395061728395,16.02469135802469,0)" xlink:href="#ah"/><use transform="matrix(0.0728395061728395,0,0,0.0728395061728395,30.592592592592588,0)" xlink:href="#ai"/><use transform="matrix(0.0728395061728395,0,0,0.0728395061728395,45.16049382716049,0)" xlink:href="#aj"/><use transform="matrix(0.0728395061728395,0,0,0.0728395061728395,59.728395061728385,0)" xlink:href="#ak"/><use transform="matrix(0.0728395061728395,0,0,0.0728395061728395,67.01234567901234,0)" xlink:href="#al"/></g><path fill="#3a414a" d="M232-93c-1 65-40 97-104 97C67 4 28-28 28-90v-158h33c8 89-33 224 67 224 102 0 64-133 71-224h33v155" id="am"/><path fill="#3a414a" d="M135-143c-3-34-86-38-87 0 15 53 115 12 119 90S17 21 10-45l28-5c4 36 97 45 98 0-10-56-113-15-118-90-4-57 82-63 122-42 12 7 21 19 24 35" id="an"/><path fill="#3a414a" d="M100-194c63 0 86 42 84 106H49c0 40 14 67 53 68 26 1 43-12 49-29l28 8c-11 28-37 45-77 45C44 4 14-33 15-96c1-61 26-98 85-98zm52 81c6-60-76-77-97-28-3 7-6 17-6 28h103" id="ao"/><path fill="#3a414a" d="M114-163C36-179 61-72 57 0H25l-1-190h30c1 12-1 29 2 39 6-27 23-49 58-41v29" id="ap"/><g id="c"><use transform="matrix(0.05,0,0,0.05,0,0)" xlink:href="#am"/><use transform="matrix(0.05,0,0,0.05,12.950000000000001,0)" xlink:href="#an"/><use transform="matrix(0.05,0,0,0.05,21.950000000000003,0)" xlink:href="#ao"/><use transform="matrix(0.05,0,0,0.05,31.950000000000003,0)" xlink:href="#ap"/><use transform="matrix(0.05,0,0,0.05,37.900000000000006,0)" xlink:href="#an"/></g><path fill="#3a414a" d="M30-248c87 1 191-15 191 75 0 78-77 80-158 76V0H30v-248zm33 125c57 0 124 11 124-50 0-59-68-47-124-48v98" id="aq"/><path fill="#3a414a" d="M194 0L95-120 63-95V0H30v-248h33v124l119-124h40L117-140 236 0h-42" id="ar"/><g id="d"><use transform="matrix(0.05,0,0,0.05,0,0)" xlink:href="#aq"/><use transform="matrix(0.05,0,0,0.05,12,0)" xlink:href="#ar"/></g><path fill="#3a414a" d="M117-194c89-4 53 116 60 194h-32v-121c0-31-8-49-39-48C34-167 62-67 57 0H25l-1-190h30c1 10-1 24 2 32 11-22 29-35 61-36" id="as"/><path fill="#3a414a" d="M24-231v-30h32v30H24zM24 0v-190h32V0H24" id="at"/><path fill="#3a414a" d="M143 0L79-87 56-68V0H24v-261h32v163l83-92h37l-77 82L181 0h-38" id="au"/><g id="e"><use transform="matrix(0.05,0,0,0.05,0,0)" xlink:href="#as"/><use transform="matrix(0.05,0,0,0.05,10,0)" xlink:href="#at"/><use transform="matrix(0.05,0,0,0.05,13.949999999999998,0)" xlink:href="#au"/></g><path fill="#3a414a" d="M108 0H70L1-190h34L89-25l56-165h34" id="av"/><path fill="#3a414a" d="M141-36C126-15 110 5 73 4 37 3 15-17 15-53c-1-64 63-63 125-63 3-35-9-54-41-54-24 1-41 7-42 31l-33-3c5-37 33-52 76-52 45 0 72 20 72 64v82c-1 20 7 32 28 27v20c-31 9-61-2-59-35zM48-53c0 20 12 33 32 33 41-3 63-29 60-74-43 2-92-5-92 41" id="aw"/><path fill="#3a414a" d="M96-169c-40 0-48 33-48 73s9 75 48 75c24 0 41-14 43-38l32 2c-6 37-31 61-74 61-59 0-76-41-82-99-10-93 101-131 147-64 4 7 5 14 7 22l-32 3c-4-21-16-35-41-35" id="ax"/><path fill="#3a414a" d="M106-169C34-169 62-67 57 0H25v-261h32l-1 103c12-21 28-36 61-36 89 0 53 116 60 194h-32v-121c2-32-8-49-39-48" id="ay"/><g id="f"><use transform="matrix(0.05,0,0,0.05,0,0)" xlink:href="#av"/><use transform="matrix(0.05,0,0,0.05,9,0)" xlink:href="#aw"/><use transform="matrix(0.05,0,0,0.05,19,0)" xlink:href="#ap"/><use transform="matrix(0.05,0,0,0.05,24.95,0)" xlink:href="#ax"/><use transform="matrix(0.05,0,0,0.05,33.95,0)" xlink:href="#ay"/><use transform="matrix(0.05,0,0,0.05,43.95,0)" xlink:href="#aw"/><use transform="matrix(0.05,0,0,0.05,53.95,0)" xlink:href="#ap"/></g><path fill="#3a414a" d="M210-169c-67 3-38 105-44 169h-31v-121c0-29-5-50-35-48C34-165 62-65 56 0H25l-1-190h30c1 10-1 24 2 32 10-44 99-50 107 0 11-21 27-35 58-36 85-2 47 119 55 194h-31v-121c0-29-5-49-35-48" id="az"/><path fill="#3a414a" d="M24 0v-261h32V0H24" id="aA"/><g id="g"><use transform="matrix(0.05,0,0,0.05,0,0)" xlink:href="#ao"/><use transform="matrix(0.05,0,0,0.05,10,0)" xlink:href="#az"/><use transform="matrix(0.05,0,0,0.05,24.950000000000003,0)" xlink:href="#aw"/><use transform="matrix(0.05,0,0,0.05,34.95,0)" xlink:href="#at"/><use transform="matrix(0.05,0,0,0.05,38.900000000000006,0)" xlink:href="#aA"/></g><path fill="#3a414a" d="M115-194c55 1 70 41 70 98S169 2 115 4C84 4 66-9 55-30l1 105H24l-1-265h31l2 30c10-21 28-34 59-34zm-8 174c40 0 45-34 45-75s-6-73-45-74c-42 0-51 32-51 76 0 43 10 73 51 73" id="aB"/><path fill="#3a414a" d="M206 0h-36l-40-164L89 0H53L-1-190h32L70-26l43-164h34l41 164 42-164h31" id="aC"/><path fill="#3a414a" d="M100-194c62-1 85 37 85 99 1 63-27 99-86 99S16-35 15-95c0-66 28-99 85-99zM99-20c44 1 53-31 53-75 0-43-8-75-51-75s-53 32-53 75 10 74 51 75" id="aD"/><path fill="#3a414a" d="M85-194c31 0 48 13 60 33l-1-100h32l1 261h-30c-2-10 0-23-3-31C134-8 116 4 85 4 32 4 16-35 15-94c0-66 23-100 70-100zm9 24c-40 0-46 34-46 75 0 40 6 74 45 74 42 0 51-32 51-76 0-42-9-74-50-73" id="aE"/><g id="h"><use transform="matrix(0.05,0,0,0.05,0,0)" xlink:href="#aB"/><use transform="matrix(0.05,0,0,0.05,10,0)" xlink:href="#aw"/><use transform="matrix(0.05,0,0,0.05,20,0)" xlink:href="#an"/><use transform="matrix(0.05,0,0,0.05,29,0)" xlink:href="#an"/><use transform="matrix(0.05,0,0,0.05,38,0)" xlink:href="#aC"/><use transform="matrix(0.05,0,0,0.05,50.95,0)" xlink:href="#aD"/><use transform="matrix(0.05,0,0,0.05,60.95,0)" xlink:href="#ap"/><use transform="matrix(0.05,0,0,0.05,66.9,0)" xlink:href="#aE"/></g><path fill="#3a414a" d="M101-234c-31-9-42 10-38 44h38v23H63V0H32v-167H5v-23h27c-7-52 17-82 69-68v24" id="aF"/><path fill="#3a414a" d="M84 4C-5 8 30-112 23-190h32v120c0 31 7 50 39 49 72-2 45-101 50-169h31l1 190h-30c-1-10 1-25-2-33-11 22-28 36-60 37" id="aG"/><g id="i"><use transform="matrix(0.05,0,0,0.05,0,0)" xlink:href="#aF"/><use transform="matrix(0.05,0,0,0.05,5,0)" xlink:href="#aG"/><use transform="matrix(0.05,0,0,0.05,15,0)" xlink:href="#aA"/><use transform="matrix(0.05,0,0,0.05,18.95,0)" xlink:href="#aA"/><use transform="matrix(0.05,0,0,0.05,22.9,0)" xlink:href="#as"/><use transform="matrix(0.05,0,0,0.05,32.9,0)" xlink:href="#aw"/><use transform="matrix(0.05,0,0,0.05,42.9,0)" xlink:href="#az"/><use transform="matrix(0.05,0,0,0.05,57.85,0)" xlink:href="#ao"/></g><path fill="#3a414a" d="M-5 72V49h209v23H-5" id="aH"/><g id="j"><use transform="matrix(0.05,0,0,0.05,0,0)" xlink:href="#aB"/><use transform="matrix(0.05,0,0,0.05,10,0)" xlink:href="#ay"/><use transform="matrix(0.05,0,0,0.05,20,0)" xlink:href="#aD"/><use transform="matrix(0.05,0,0,0.05,30,0)" xlink:href="#as"/><use transform="matrix(0.05,0,0,0.05,40,0)" xlink:href="#ao"/><use transform="matrix(0.05,0,0,0.05,50,0)" xlink:href="#aH"/><use transform="matrix(0.05,0,0,0.05,60,0)" xlink:href="#as"/><use transform="matrix(0.05,0,0,0.05,70,0)" xlink:href="#aG"/><use transform="matrix(0.05,0,0,0.05,80,0)" xlink:href="#az"/></g><path fill="#3a414a" d="M177-190C167-65 218 103 67 71c-23-6-38-20-44-43l32-5c15 47 100 32 89-28v-30C133-14 115 1 83 1 29 1 15-40 15-95c0-56 16-97 71-98 29-1 48 16 59 35 1-10 0-23 2-32h30zM94-22c36 0 50-32 50-73 0-42-14-75-50-75-39 0-46 34-46 75s6 73 46 73" id="aI"/><g id="k"><use transform="matrix(0.05,0,0,0.05,0,0)" xlink:href="#aI"/><use transform="matrix(0.05,0,0,0.05,10,0)" xlink:href="#ao"/><use transform="matrix(0.05,0,0,0.05,20,0)" xlink:href="#as"/><use transform="matrix(0.05,0,0,0.05,30,0)" xlink:href="#aE"/><use transform="matrix(0.05,0,0,0.05,40,0)" xlink:href="#ao"/><use transform="matrix(0.05,0,0,0.05,50,0)" xlink:href="#ap"/></g><g id="l"><use transform="matrix(0.05,0,0,0.05,0,0)" xlink:href="#ao"/><use transform="matrix(0.05,0,0,0.05,10,0)" xlink:href="#as"/><use transform="matrix(0.05,0,0,0.05,20,0)" xlink:href="#aG"/><use transform="matrix(0.05,0,0,0.05,30,0)" xlink:href="#az"/></g><path fill="#3a414a" d="M59-47c-2 24 18 29 38 22v24C64 9 27 4 27-40v-127H5v-23h24l9-43h21v43h35v23H59v120" id="aJ"/><g id="m"><use transform="matrix(0.05,0,0,0.05,0,0)" xlink:href="#av"/><use transform="matrix(0.05,0,0,0.05,9,0)" xlink:href="#aw"/><use transform="matrix(0.05,0,0,0.05,19,0)" xlink:href="#ax"/><use transform="matrix(0.05,0,0,0.05,28,0)" xlink:href="#ax"/><use transform="matrix(0.05,0,0,0.05,37,0)" xlink:href="#at"/><use transform="matrix(0.05,0,0,0.05,40.95,0)" xlink:href="#as"/><use transform="matrix(0.05,0,0,0.05,50.95,0)" xlink:href="#ao"/><use transform="matrix(0.05,0,0,0.05,60.95,0)" xlink:href="#aH"/><use transform="matrix(0.05,0,0,0.05,70.95,0)" xlink:href="#ax"/><use transform="matrix(0.05,0,0,0.05,79.95,0)" xlink:href="#aD"/><use transform="matrix(0.05,0,0,0.05,89.95,0)" xlink:href="#aG"/><use transform="matrix(0.05,0,0,0.05,99.95,0)" xlink:href="#as"/><use transform="matrix(0.05,0,0,0.05,109.95,0)" xlink:href="#aJ"/></g><g id="n"><use transform="matrix(0.05,0,0,0.05,0,0)" xlink:href="#at"/><use transform="matrix(0.05,0,0,0.05,3.95,0)" xlink:href="#as"/><use transform="matrix(0.05,0,0,0.05,13.949999999999998,0)" xlink:href="#aJ"/></g><path fill="#3a414a" d="M115-194c53 0 69 39 70 98 0 66-23 100-70 100C84 3 66-7 56-30L54 0H23l1-261h32v101c10-23 28-34 59-34zm-8 174c40 0 45-34 45-75 0-40-5-75-45-74-42 0-51 32-51 76 0 43 10 73 51 73" id="aK"/><g id="o"><use transform="matrix(0.05,0,0,0.05,0,0)" xlink:href="#aK"/><use transform="matrix(0.05,0,0,0.05,10,0)" xlink:href="#at"/><use transform="matrix(0.05,0,0,0.05,13.949999999999998,0)" xlink:href="#ap"/><use transform="matrix(0.05,0,0,0.05,19.9,0)" xlink:href="#aJ"/><use transform="matrix(0.05,0,0,0.05,24.9,0)" xlink:href="#ay"/><use transform="matrix(0.05,0,0,0.05,34.9,0)" xlink:href="#aH"/><use transform="matrix(0.05,0,0,0.05,44.9,0)" xlink:href="#aE"/><use transform="matrix(0.05,0,0,0.05,54.900000000000006,0)" xlink:href="#aw"/><use transform="matrix(0.05,0,0,0.05,64.9,0)" xlink:href="#aJ"/><use transform="matrix(0.05,0,0,0.05,69.9,0)" xlink:href="#ao"/></g><g id="p"><use transform="matrix(0.05,0,0,0.05,0,0)" xlink:href="#aE"/><use transform="matrix(0.05,0,0,0.05,10,0)" xlink:href="#aw"/><use transform="matrix(0.05,0,0,0.05,20,0)" xlink:href="#aJ"/><use transform="matrix(0.05,0,0,0.05,25,0)" xlink:href="#ao"/></g><g id="q"><use transform="matrix(0.05,0,0,0.05,0,0)" xlink:href="#ax"/><use transform="matrix(0.05,0,0,0.05,9,0)" xlink:href="#ap"/><use transform="matrix(0.05,0,0,0.05,14.949999999999998,0)" xlink:href="#ao"/><use transform="matrix(0.05,0,0,0.05,24.95,0)" xlink:href="#aw"/><use transform="matrix(0.05,0,0,0.05,34.95,0)" xlink:href="#aJ"/><use transform="matrix(0.05,0,0,0.05,39.95,0)" xlink:href="#ao"/><use transform="matrix(0.05,0,0,0.05,49.95,0)" xlink:href="#aE"/><use transform="matrix(0.05,0,0,0.05,59.95,0)" xlink:href="#aH"/><use transform="matrix(0.05,0,0,0.05,69.95,0)" xlink:href="#aw"/><use transform="matrix(0.05,0,0,0.05,79.95,0)" xlink:href="#aJ"/></g><g id="r"><use transform="matrix(0.05,0,0,0.05,0,0)" xlink:href="#aE"/><use transform="matrix(0.05,0,0,0.05,10,0)" xlink:href="#aw"/><use transform="matrix(0.05,0,0,0.05,20,0)" xlink:href="#aJ"/><use transform="matrix(0.05,0,0,0.05,25,0)" xlink:href="#ao"/><use transform="matrix(0.05,0,0,0.05,35,0)" xlink:href="#aJ"/><use transform="matrix(0.05,0,0,0.05,40,0)" xlink:href="#at"/><use transform="matrix(0.05,0,0,0.05,43.95,0)" xlink:href="#az"/><use transform="matrix(0.05,0,0,0.05,58.900000000000006,0)" xlink:href="#ao"/></g><g id="s"><use transform="matrix(0.05,0,0,0.05,0,0)" xlink:href="#aG"/><use transform="matrix(0.05,0,0,0.05,10,0)" xlink:href="#aB"/><use transform="matrix(0.05,0,0,0.05,20,0)" xlink:href="#aE"/><use transform="matrix(0.05,0,0,0.05,30,0)" xlink:href="#aw"/><use transform="matrix(0.05,0,0,0.05,40,0)" xlink:href="#aJ"/><use transform="matrix(0.05,0,0,0.05,45,0)" xlink:href="#ao"/><use transform="matrix(0.05,0,0,0.05,55,0)" xlink:href="#aE"/><use transform="matrix(0.05,0,0,0.05,65,0)" xlink:href="#aH"/><use transform="matrix(0.05,0,0,0.05,75,0)" xlink:href="#aw"/><use transform="matrix(0.05,0,0,0.05,85,0)" xlink:href="#aJ"/></g><g id="t"><use transform="matrix(0.05,0,0,0.05,0,0)" xlink:href="#aE"/><use transform="matrix(0.05,0,0,0.05,10,0)" xlink:href="#ao"/><use transform="matrix(0.05,0,0,0.05,20,0)" xlink:href="#aA"/><use transform="matrix(0.05,0,0,0.05,23.95,0)" xlink:href="#ao"/><use transform="matrix(0.05,0,0,0.05,33.95,0)" xlink:href="#aJ"/><use transform="matrix(0.05,0,0,0.05,38.95,0)" xlink:href="#ao"/><use transform="matrix(0.05,0,0,0.05,48.95,0)" xlink:href="#aE"/><use transform="matrix(0.05,0,0,0.05,58.95,0)" xlink:href="#aH"/><use transform="matrix(0.05,0,0,0.05,68.95,0)" xlink:href="#aw"/><use transform="matrix(0.05,0,0,0.05,78.95,0)" xlink:href="#aJ"/></g><path fill="#3a414a" d="M205 0l-28-72H64L36 0H1l101-248h38L239 0h-34zm-38-99l-47-123c-12 45-31 82-46 123h93" id="aL"/><g id="u"><use transform="matrix(0.05,0,0,0.05,0,0)" xlink:href="#aL"/><use transform="matrix(0.05,0,0,0.05,12,0)" xlink:href="#aE"/><use transform="matrix(0.05,0,0,0.05,22,0)" xlink:href="#az"/><use transform="matrix(0.05,0,0,0.05,36.95,0)" xlink:href="#at"/><use transform="matrix(0.05,0,0,0.05,40.900000000000006,0)" xlink:href="#as"/><use transform="matrix(0.05,0,0,0.05,50.900000000000006,0)" xlink:href="#an"/></g><g id="v"><use transform="matrix(0.05,0,0,0.05,0,0)" xlink:href="#at"/><use transform="matrix(0.05,0,0,0.05,3.95,0)" xlink:href="#aE"/></g><path fill="#3a414a" d="M63-220v92h138v28H63V0H30v-248h175v28H63" id="aM"/><g id="w"><use transform="matrix(0.05,0,0,0.05,0,0)" xlink:href="#aM"/><use transform="matrix(0.05,0,0,0.05,10.950000000000001,0)" xlink:href="#ar"/></g><g id="x"><use transform="matrix(0.05,0,0,0.05,0,0)" xlink:href="#at"/><use transform="matrix(0.05,0,0,0.05,3.95,0)" xlink:href="#aE"/><use transform="matrix(0.05,0,0,0.05,13.949999999999998,0)" xlink:href="#aH"/><use transform="matrix(0.05,0,0,0.05,23.95,0)" xlink:href="#ay"/><use transform="matrix(0.05,0,0,0.05,33.95,0)" xlink:href="#ao"/><use transform="matrix(0.05,0,0,0.05,43.95,0)" xlink:href="#aw"/><use transform="matrix(0.05,0,0,0.05,53.95,0)" xlink:href="#aA"/><use transform="matrix(0.05,0,0,0.05,57.900000000000006,0)" xlink:href="#aJ"/><use transform="matrix(0.05,0,0,0.05,62.900000000000006,0)" xlink:href="#ay"/><use transform="matrix(0.05,0,0,0.05,72.9,0)" xlink:href="#aH"/><use transform="matrix(0.05,0,0,0.05,82.9,0)" xlink:href="#aF"/><use transform="matrix(0.05,0,0,0.05,87.9,0)" xlink:href="#aw"/><use transform="matrix(0.05,0,0,0.05,97.9,0)" xlink:href="#ax"/><use transform="matrix(0.05,0,0,0.05,106.9,0)" xlink:href="#at"/><use transform="matrix(0.05,0,0,0.05,110.85000000000001,0)" xlink:href="#aA"/><use transform="matrix(0.05,0,0,0.05,114.80000000000001,0)" xlink:href="#at"/><use transform="matrix(0.05,0,0,0.05,118.75,0)" xlink:href="#aJ"/><use transform="matrix(0.05,0,0,0.05,123.75,0)" xlink:href="#at"/><use transform="matrix(0.05,0,0,0.05,127.7,0)" xlink:href="#ao"/><use transform="matrix(0.05,0,0,0.05,137.70000000000002,0)" xlink:href="#an"/></g><g id="y"><use transform="matrix(0.05,0,0,0.05,0,0)" xlink:href="#ay"/><use transform="matrix(0.05,0,0,0.05,10,0)" xlink:href="#ao"/><use transform="matrix(0.05,0,0,0.05,20,0)" xlink:href="#aw"/><use transform="matrix(0.05,0,0,0.05,30,0)" xlink:href="#aA"/><use transform="matrix(0.05,0,0,0.05,33.95,0)" xlink:href="#aJ"/><use transform="matrix(0.05,0,0,0.05,38.95,0)" xlink:href="#ay"/><use transform="matrix(0.05,0,0,0.05,48.95,0)" xlink:href="#aH"/><use transform="matrix(0.05,0,0,0.05,58.95,0)" xlink:href="#aF"/><use transform="matrix(0.05,0,0,0.05,63.95,0)" xlink:href="#aw"/><use transform="matrix(0.05,0,0,0.05,73.95,0)" xlink:href="#ax"/><use transform="matrix(0.05,0,0,0.05,82.95,0)" xlink:href="#at"/><use transform="matrix(0.05,0,0,0.05,86.9,0)" xlink:href="#aA"/><use transform="matrix(0.05,0,0,0.05,90.85000000000001,0)" xlink:href="#at"/><use transform="matrix(0.05,0,0,0.05,94.80000000000001,0)" xlink:href="#aJ"/><use transform="matrix(0.05,0,0,0.05,99.80000000000001,0)" xlink:href="#at"/><use transform="matrix(0.05,0,0,0.05,103.75,0)" xlink:href="#ao"/><use transform="matrix(0.05,0,0,0.05,113.75,0)" xlink:href="#an"/></g><g id="z"><use transform="matrix(0.05,0,0,0.05,0,0)" xlink:href="#as"/><use transform="matrix(0.05,0,0,0.05,10,0)" xlink:href="#aw"/><use transform="matrix(0.05,0,0,0.05,20,0)" xlink:href="#az"/><use transform="matrix(0.05,0,0,0.05,34.95,0)" xlink:href="#ao"/></g><g id="A"><use transform="matrix(0.05,0,0,0.05,0,0)" xlink:href="#aL"/><use transform="matrix(0.05,0,0,0.05,12,0)" xlink:href="#aE"/><use transform="matrix(0.05,0,0,0.05,22,0)" xlink:href="#aE"/><use transform="matrix(0.05,0,0,0.05,32,0)" xlink:href="#ap"/><use transform="matrix(0.05,0,0,0.05,37.95,0)" xlink:href="#ao"/><use transform="matrix(0.05,0,0,0.05,47.95,0)" xlink:href="#an"/><use transform="matrix(0.05,0,0,0.05,56.95,0)" xlink:href="#an"/><use transform="matrix(0.05,0,0,0.05,65.95,0)" xlink:href="#ao"/><use transform="matrix(0.05,0,0,0.05,75.95,0)" xlink:href="#an"/></g><g id="B"><use transform="matrix(0.05,0,0,0.05,0,0)" xlink:href="#as"/><use transform="matrix(0.05,0,0,0.05,10,0)" xlink:href="#at"/><use transform="matrix(0.05,0,0,0.05,13.949999999999998,0)" xlink:href="#au"/><use transform="matrix(0.05,0,0,0.05,22.95,0)" xlink:href="#aH"/><use transform="matrix(0.05,0,0,0.05,32.95,0)" xlink:href="#aG"/><use transform="matrix(0.05,0,0,0.05,42.95,0)" xlink:href="#an"/><use transform="matrix(0.05,0,0,0.05,51.95,0)" xlink:href="#ao"/><use transform="matrix(0.05,0,0,0.05,61.95,0)" xlink:href="#ap"/></g><g id="C"><use transform="matrix(0.05,0,0,0.05,0,0)" xlink:href="#ax"/><use transform="matrix(0.05,0,0,0.05,9,0)" xlink:href="#aG"/><use transform="matrix(0.05,0,0,0.05,19,0)" xlink:href="#ap"/><use transform="matrix(0.05,0,0,0.05,24.95,0)" xlink:href="#ap"/><use transform="matrix(0.05,0,0,0.05,30.899999999999995,0)" xlink:href="#ao"/><use transform="matrix(0.05,0,0,0.05,40.9,0)" xlink:href="#as"/><use transform="matrix(0.05,0,0,0.05,50.9,0)" xlink:href="#aJ"/><use transform="matrix(0.05,0,0,0.05,55.900000000000006,0)" xlink:href="#aH"/><use transform="matrix(0.05,0,0,0.05,65.9,0)" xlink:href="#aw"/><use transform="matrix(0.05,0,0,0.05,75.9,0)" xlink:href="#aE"/><use transform="matrix(0.05,0,0,0.05,85.9,0)" xlink:href="#aE"/><use transform="matrix(0.05,0,0,0.05,95.9,0)" xlink:href="#ap"/><use transform="matrix(0.05,0,0,0.05,101.85000000000001,0)" xlink:href="#ao"/><use transform="matrix(0.05,0,0,0.05,111.85000000000001,0)" xlink:href="#an"/><use transform="matrix(0.05,0,0,0.05,120.85000000000001,0)" xlink:href="#an"/></g><path fill="#3a414a" d="M141 0L90-78 38 0H4l68-98-65-92h35l48 74 47-74h35l-64 92 68 98h-35" id="aN"/><g id="D"><use transform="matrix(0.05,0,0,0.05,0,0)" xlink:href="#aA"/><use transform="matrix(0.05,0,0,0.05,3.95,0)" xlink:href="#aD"/><use transform="matrix(0.05,0,0,0.05,13.949999999999998,0)" xlink:href="#as"/><use transform="matrix(0.05,0,0,0.05,23.95,0)" xlink:href="#aI"/><use transform="matrix(0.05,0,0,0.05,33.95,0)" xlink:href="#aJ"/><use transform="matrix(0.05,0,0,0.05,38.95,0)" xlink:href="#ao"/><use transform="matrix(0.05,0,0,0.05,48.95,0)" xlink:href="#aN"/><use transform="matrix(0.05,0,0,0.05,57.95,0)" xlink:href="#aJ"/></g><g id="E"><use transform="matrix(0.05,0,0,0.05,0,0)" xlink:href="#aE"/><use transform="matrix(0.05,0,0,0.05,10,0)" xlink:href="#at"/><use transform="matrix(0.05,0,0,0.05,13.949999999999998,0)" xlink:href="#an"/><use transform="matrix(0.05,0,0,0.05,22.95,0)" xlink:href="#aJ"/><use transform="matrix(0.05,0,0,0.05,27.950000000000003,0)" xlink:href="#ap"/><use transform="matrix(0.05,0,0,0.05,33.9,0)" xlink:href="#at"/><use transform="matrix(0.05,0,0,0.05,37.85,0)" xlink:href="#ax"/><use transform="matrix(0.05,0,0,0.05,46.85,0)" xlink:href="#aJ"/></g><path fill="#3a414a" d="M179-190L93 31C79 59 56 82 12 73V49c39 6 53-20 64-50L1-190h34L92-34l54-156h33" id="aO"/><g id="F"><use transform="matrix(0.05,0,0,0.05,0,0)" xlink:href="#ax"/><use transform="matrix(0.05,0,0,0.05,9,0)" xlink:href="#at"/><use transform="matrix(0.05,0,0,0.05,12.949999999999998,0)" xlink:href="#aJ"/><use transform="matrix(0.05,0,0,0.05,17.95,0)" xlink:href="#aO"/></g><g id="G"><use transform="matrix(0.05,0,0,0.05,0,0)" xlink:href="#aB"/><use transform="matrix(0.05,0,0,0.05,10,0)" xlink:href="#ap"/><use transform="matrix(0.05,0,0,0.05,15.949999999999998,0)" xlink:href="#aD"/><use transform="matrix(0.05,0,0,0.05,25.950000000000003,0)" xlink:href="#av"/><use transform="matrix(0.05,0,0,0.05,34.95,0)" xlink:href="#at"/><use transform="matrix(0.05,0,0,0.05,38.900000000000006,0)" xlink:href="#as"/><use transform="matrix(0.05,0,0,0.05,48.900000000000006,0)" xlink:href="#ax"/><use transform="matrix(0.05,0,0,0.05,57.900000000000006,0)" xlink:href="#ao"/></g><g id="H"><use transform="matrix(0.05,0,0,0.05,0,0)" xlink:href="#aA"/><use transform="matrix(0.05,0,0,0.05,3.95,0)" xlink:href="#aD"/><use transform="matrix(0.05,0,0,0.05,13.949999999999998,0)" xlink:href="#as"/><use transform="matrix(0.05,0,0,0.05,23.95,0)" xlink:href="#aI"/><use transform="matrix(0.05,0,0,0.05,33.95,0)" xlink:href="#at"/><use transform="matrix(0.05,0,0,0.05,37.900000000000006,0)" xlink:href="#aJ"/><use transform="matrix(0.05,0,0,0.05,42.900000000000006,0)" xlink:href="#aG"/><use transform="matrix(0.05,0,0,0.05,52.900000000000006,0)" xlink:href="#aE"/><use transform="matrix(0.05,0,0,0.05,62.900000000000006,0)" xlink:href="#ao"/></g><g id="I"><use transform="matrix(0.05,0,0,0.05,0,0)" xlink:href="#as"/><use transform="matrix(0.05,0,0,0.05,10,0)" xlink:href="#aG"/><use transform="matrix(0.05,0,0,0.05,20,0)" xlink:href="#az"/><use transform="matrix(0.05,0,0,0.05,34.95,0)" xlink:href="#ao"/><use transform="matrix(0.05,0,0,0.05,44.95,0)" xlink:href="#ap"/><use transform="matrix(0.05,0,0,0.05,50.900000000000006,0)" xlink:href="#at"/><use transform="matrix(0.05,0,0,0.05,54.85,0)" xlink:href="#ax"/></g><g id="J"><use transform="matrix(0.05,0,0,0.05,0,0)" xlink:href="#aA"/><use transform="matrix(0.05,0,0,0.05,3.95,0)" xlink:href="#aw"/><use transform="matrix(0.05,0,0,0.05,13.949999999999998,0)" xlink:href="#aJ"/><use transform="matrix(0.05,0,0,0.05,18.95,0)" xlink:href="#at"/><use transform="matrix(0.05,0,0,0.05,22.9,0)" xlink:href="#aJ"/><use transform="matrix(0.05,0,0,0.05,27.899999999999995,0)" xlink:href="#aG"/><use transform="matrix(0.05,0,0,0.05,37.9,0)" xlink:href="#aE"/><use transform="matrix(0.05,0,0,0.05,47.9,0)" xlink:href="#ao"/></g><path fill="#3a414a" d="M137 0h-34L2-248h35l83 218 83-218h36" id="aP"/><g id="K"><use transform="matrix(0.05,0,0,0.05,0,0)" xlink:href="#aP"/><use transform="matrix(0.05,0,0,0.05,10.65,0)" xlink:href="#aw"/><use transform="matrix(0.05,0,0,0.05,20.65,0)" xlink:href="#ax"/><use transform="matrix(0.05,0,0,0.05,29.649999999999995,0)" xlink:href="#ax"/><use transform="matrix(0.05,0,0,0.05,38.65,0)" xlink:href="#at"/><use transform="matrix(0.05,0,0,0.05,42.6,0)" xlink:href="#as"/><use transform="matrix(0.05,0,0,0.05,52.6,0)" xlink:href="#ao"/><use transform="matrix(0.05,0,0,0.05,62.6,0)" xlink:href="#an"/></g><g id="L"><use transform="matrix(0.05,0,0,0.05,0,0)" xlink:href="#aE"/><use transform="matrix(0.05,0,0,0.05,10,0)" xlink:href="#aD"/><use transform="matrix(0.05,0,0,0.05,20,0)" xlink:href="#an"/><use transform="matrix(0.05,0,0,0.05,29,0)" xlink:href="#ao"/></g><g id="M"><use transform="matrix(0.05,0,0,0.05,0,0)" xlink:href="#an"/><use transform="matrix(0.05,0,0,0.05,9,0)" xlink:href="#aJ"/><use transform="matrix(0.05,0,0,0.05,14,0)" xlink:href="#aD"/><use transform="matrix(0.05,0,0,0.05,24,0)" xlink:href="#ax"/><use transform="matrix(0.05,0,0,0.05,33,0)" xlink:href="#au"/></g><g id="N"><use transform="matrix(0.05,0,0,0.05,0,0)" xlink:href="#av"/><use transform="matrix(0.05,0,0,0.05,9,0)" xlink:href="#aw"/><use transform="matrix(0.05,0,0,0.05,19,0)" xlink:href="#ax"/><use transform="matrix(0.05,0,0,0.05,28,0)" xlink:href="#ax"/><use transform="matrix(0.05,0,0,0.05,37,0)" xlink:href="#at"/><use transform="matrix(0.05,0,0,0.05,40.95,0)" xlink:href="#as"/><use transform="matrix(0.05,0,0,0.05,50.95,0)" xlink:href="#ao"/><use transform="matrix(0.05,0,0,0.05,60.95,0)" xlink:href="#aH"/><use transform="matrix(0.05,0,0,0.05,70.95,0)" xlink:href="#ay"/><use transform="matrix(0.05,0,0,0.05,80.95,0)" xlink:href="#at"/><use transform="matrix(0.05,0,0,0.05,84.9,0)" xlink:href="#an"/><use transform="matrix(0.05,0,0,0.05,93.9,0)" xlink:href="#aJ"/><use transform="matrix(0.05,0,0,0.05,98.9,0)" xlink:href="#aD"/><use transform="matrix(0.05,0,0,0.05,108.9,0)" xlink:href="#ap"/><use transform="matrix(0.05,0,0,0.05,114.85000000000001,0)" xlink:href="#at"/><use transform="matrix(0.05,0,0,0.05,118.80000000000001,0)" xlink:href="#ao"/><use transform="matrix(0.05,0,0,0.05,128.8,0)" xlink:href="#an"/></g><g id="O"><use transform="matrix(0.05,0,0,0.05,0,0)" xlink:href="#at"/><use transform="matrix(0.05,0,0,0.05,3.95,0)" xlink:href="#aE"/><use transform="matrix(0.05,0,0,0.05,13.949999999999998,0)" xlink:href="#aH"/><use transform="matrix(0.05,0,0,0.05,23.95,0)" xlink:href="#aK"/><use transform="matrix(0.05,0,0,0.05,33.95,0)" xlink:href="#aD"/><use transform="matrix(0.05,0,0,0.05,43.95,0)" xlink:href="#aD"/><use transform="matrix(0.05,0,0,0.05,53.95,0)" xlink:href="#au"/><use transform="matrix(0.05,0,0,0.05,62.95,0)" xlink:href="#at"/><use transform="matrix(0.05,0,0,0.05,66.9,0)" xlink:href="#as"/><use transform="matrix(0.05,0,0,0.05,76.9,0)" xlink:href="#aI"/></g><g id="P"><use transform="matrix(0.05,0,0,0.05,0,0)" xlink:href="#at"/><use transform="matrix(0.05,0,0,0.05,3.95,0)" xlink:href="#aE"/><use transform="matrix(0.05,0,0,0.05,13.949999999999998,0)" xlink:href="#aH"/><use transform="matrix(0.05,0,0,0.05,23.95,0)" xlink:href="#an"/><use transform="matrix(0.05,0,0,0.05,32.95,0)" xlink:href="#aw"/><use transform="matrix(0.05,0,0,0.05,42.95,0)" xlink:href="#az"/><use transform="matrix(0.05,0,0,0.05,57.900000000000006,0)" xlink:href="#ao"/><use transform="matrix(0.05,0,0,0.05,67.9,0)" xlink:href="#aH"/><use transform="matrix(0.05,0,0,0.05,77.9,0)" xlink:href="#aK"/><use transform="matrix(0.05,0,0,0.05,87.9,0)" xlink:href="#aD"/><use transform="matrix(0.05,0,0,0.05,97.9,0)" xlink:href="#aD"/><use transform="matrix(0.05,0,0,0.05,107.9,0)" xlink:href="#au"/></g><g id="Q"><use transform="matrix(0.05,0,0,0.05,0,0)" xlink:href="#an"/><use transform="matrix(0.05,0,0,0.05,9,0)" xlink:href="#aJ"/><use transform="matrix(0.05,0,0,0.05,14,0)" xlink:href="#aw"/><use transform="matrix(0.05,0,0,0.05,24,0)" xlink:href="#aJ"/><use transform="matrix(0.05,0,0,0.05,29,0)" xlink:href="#aG"/><use transform="matrix(0.05,0,0,0.05,39,0)" xlink:href="#an"/></g><g id="R"><use transform="matrix(0.05,0,0,0.05,0,0)" xlink:href="#aK"/><use transform="matrix(0.05,0,0,0.05,10,0)" xlink:href="#aD"/><use transform="matrix(0.05,0,0,0.05,20,0)" xlink:href="#aD"/><use transform="matrix(0.05,0,0,0.05,30,0)" xlink:href="#au"/><use transform="matrix(0.05,0,0,0.05,39,0)" xlink:href="#at"/><use transform="matrix(0.05,0,0,0.05,42.95,0)" xlink:href="#as"/><use transform="matrix(0.05,0,0,0.05,52.95,0)" xlink:href="#aI"/><use transform="matrix(0.05,0,0,0.05,62.95,0)" xlink:href="#aH"/><use transform="matrix(0.05,0,0,0.05,72.95,0)" xlink:href="#an"/><use transform="matrix(0.05,0,0,0.05,81.95,0)" xlink:href="#ao"/><use transform="matrix(0.05,0,0,0.05,91.95,0)" xlink:href="#an"/><use transform="matrix(0.05,0,0,0.05,100.95,0)" xlink:href="#an"/><use transform="matrix(0.05,0,0,0.05,109.95,0)" xlink:href="#at"/><use transform="matrix(0.05,0,0,0.05,113.9,0)" xlink:href="#aD"/><use transform="matrix(0.05,0,0,0.05,123.9,0)" xlink:href="#as"/><use transform="matrix(0.05,0,0,0.05,133.9,0)" xlink:href="#an"/></g><g id="S"><use transform="matrix(0.05,0,0,0.05,0,0)" xlink:href="#at"/><use transform="matrix(0.05,0,0,0.05,3.95,0)" xlink:href="#aE"/><use transform="matrix(0.05,0,0,0.05,13.949999999999998,0)" xlink:href="#aH"/><use transform="matrix(0.05,0,0,0.05,23.95,0)" xlink:href="#an"/><use transform="matrix(0.05,0,0,0.05,32.95,0)" xlink:href="#ao"/><use transform="matrix(0.05,0,0,0.05,42.95,0)" xlink:href="#an"/><use transform="matrix(0.05,0,0,0.05,51.95,0)" xlink:href="#an"/><use transform="matrix(0.05,0,0,0.05,60.95,0)" xlink:href="#at"/><use transform="matrix(0.05,0,0,0.05,64.9,0)" xlink:href="#aD"/><use transform="matrix(0.05,0,0,0.05,74.9,0)" xlink:href="#as"/></g><path fill="#3a414a" d="M145-31C134-9 116 4 85 4 32 4 16-35 15-94c0-59 17-99 70-100 32-1 48 14 60 33 0-11-1-24 2-32h30l-1 268h-32zM93-21c41 0 51-33 51-76s-8-73-50-73c-40 0-46 35-46 75s5 74 45 74" id="aQ"/><g id="T"><use transform="matrix(0.05,0,0,0.05,0,0)" xlink:href="#aQ"/><use transform="matrix(0.05,0,0,0.05,10,0)" xlink:href="#aG"/><use transform="matrix(0.05,0,0,0.05,20,0)" xlink:href="#ao"/><use transform="matrix(0.05,0,0,0.05,30,0)" xlink:href="#aG"/><use transform="matrix(0.05,0,0,0.05,40,0)" xlink:href="#ao"/></g><path fill="#3a414a" d="M185-189c-5-48-123-54-124 2 14 75 158 14 163 119 3 78-121 87-175 55-17-10-28-26-33-46l33-7c5 56 141 63 141-1 0-78-155-14-162-118-5-82 145-84 179-34 5 7 8 16 11 25" id="aR"/><g id="U"><use transform="matrix(0.05,0,0,0.05,0,0)" xlink:href="#aR"/><use transform="matrix(0.05,0,0,0.05,12,0)" xlink:href="#ao"/><use transform="matrix(0.05,0,0,0.05,22,0)" xlink:href="#an"/><use transform="matrix(0.05,0,0,0.05,31,0)" xlink:href="#an"/><use transform="matrix(0.05,0,0,0.05,40,0)" xlink:href="#at"/><use transform="matrix(0.05,0,0,0.05,43.95,0)" xlink:href="#aD"/><use transform="matrix(0.05,0,0,0.05,53.95,0)" xlink:href="#as"/><use transform="matrix(0.05,0,0,0.05,63.95,0)" xlink:href="#an"/></g><g id="V"><use transform="matrix(0.05,0,0,0.05,0,0)" xlink:href="#at"/><use transform="matrix(0.05,0,0,0.05,3.95,0)" xlink:href="#aE"/><use transform="matrix(0.05,0,0,0.05,13.949999999999998,0)" xlink:href="#aH"/><use transform="matrix(0.05,0,0,0.05,23.95,0)" xlink:href="#av"/><use transform="matrix(0.05,0,0,0.05,32.95,0)" xlink:href="#aw"/><use transform="matrix(0.05,0,0,0.05,42.95,0)" xlink:href="#ax"/><use transform="matrix(0.05,0,0,0.05,51.95,0)" xlink:href="#ax"/><use transform="matrix(0.05,0,0,0.05,60.95,0)" xlink:href="#at"/><use transform="matrix(0.05,0,0,0.05,64.9,0)" xlink:href="#as"/><use transform="matrix(0.05,0,0,0.05,74.9,0)" xlink:href="#ao"/></g><g id="W"><use transform="matrix(0.05,0,0,0.05,0,0)" xlink:href="#an"/><use transform="matrix(0.05,0,0,0.05,9,0)" xlink:href="#ao"/><use transform="matrix(0.05,0,0,0.05,19,0)" xlink:href="#an"/><use transform="matrix(0.05,0,0,0.05,28,0)" xlink:href="#an"/><use transform="matrix(0.05,0,0,0.05,37,0)" xlink:href="#at"/><use transform="matrix(0.05,0,0,0.05,40.95,0)" xlink:href="#aD"/><use transform="matrix(0.05,0,0,0.05,50.95,0)" xlink:href="#as"/><use transform="matrix(0.05,0,0,0.05,60.95,0)" xlink:href="#aH"/><use transform="matrix(0.05,0,0,0.05,70.95,0)" xlink:href="#as"/><use transform="matrix(0.05,0,0,0.05,80.95,0)" xlink:href="#aw"/><use transform="matrix(0.05,0,0,0.05,90.95,0)" xlink:href="#az"/><use transform="matrix(0.05,0,0,0.05,105.9,0)" xlink:href="#ao"/></g><g id="X"><use transform="matrix(0.05,0,0,0.05,0,0)" xlink:href="#ax"/><use transform="matrix(0.05,0,0,0.05,9,0)" xlink:href="#aw"/><use transform="matrix(0.05,0,0,0.05,19,0)" xlink:href="#aB"/><use transform="matrix(0.05,0,0,0.05,29,0)" xlink:href="#aw"/><use transform="matrix(0.05,0,0,0.05,39,0)" xlink:href="#ax"/><use transform="matrix(0.05,0,0,0.05,48,0)" xlink:href="#at"/><use transform="matrix(0.05,0,0,0.05,51.95,0)" xlink:href="#aJ"/><use transform="matrix(0.05,0,0,0.05,56.95,0)" xlink:href="#aO"/></g><g id="Y"><use transform="matrix(0.05,0,0,0.05,0,0)" xlink:href="#at"/><use transform="matrix(0.05,0,0,0.05,3.95,0)" xlink:href="#an"/><use transform="matrix(0.05,0,0,0.05,12.949999999999998,0)" xlink:href="#aH"/><use transform="matrix(0.05,0,0,0.05,22.95,0)" xlink:href="#ax"/><use transform="matrix(0.05,0,0,0.05,31.950000000000003,0)" xlink:href="#aA"/><use transform="matrix(0.05,0,0,0.05,35.9,0)" xlink:href="#aD"/><use transform="matrix(0.05,0,0,0.05,45.9,0)" xlink:href="#an"/><use transform="matrix(0.05,0,0,0.05,54.900000000000006,0)" xlink:href="#ao"/></g><g id="Z"><use transform="matrix(0.05,0,0,0.05,0,0)" xlink:href="#aK"/><use transform="matrix(0.05,0,0,0.05,10,0)" xlink:href="#aD"/><use transform="matrix(0.05,0,0,0.05,20,0)" xlink:href="#aD"/><use transform="matrix(0.05,0,0,0.05,30,0)" xlink:href="#aA"/></g><g id="aa"><use transform="matrix(0.05,0,0,0.05,0,0)" xlink:href="#aE"/><use transform="matrix(0.05,0,0,0.05,10,0)" xlink:href="#aw"/><use transform="matrix(0.05,0,0,0.05,20,0)" xlink:href="#aJ"/><use transform="matrix(0.05,0,0,0.05,25,0)" xlink:href="#ao"/><use transform="matrix(0.05,0,0,0.05,35,0)" xlink:href="#aH"/><use transform="matrix(0.05,0,0,0.05,45,0)" xlink:href="#an"/><use transform="matrix(0.05,0,0,0.05,54,0)" xlink:href="#ao"/><use transform="matrix(0.05,0,0,0.05,64,0)" xlink:href="#an"/><use transform="matrix(0.05,0,0,0.05,73,0)" xlink:href="#an"/><use transform="matrix(0.05,0,0,0.05,82,0)" xlink:href="#at"/><use transform="matrix(0.05,0,0,0.05,85.95,0)" xlink:href="#aD"/><use transform="matrix(0.05,0,0,0.05,95.95,0)" xlink:href="#as"/></g><g id="ab"><use transform="matrix(0.05,0,0,0.05,0,0)" xlink:href="#an"/><use transform="matrix(0.05,0,0,0.05,9,0)" xlink:href="#aJ"/><use transform="matrix(0.05,0,0,0.05,14,0)" xlink:href="#aw"/><use transform="matrix(0.05,0,0,0.05,24,0)" xlink:href="#ap"/><use transform="matrix(0.05,0,0,0.05,29.950000000000003,0)" xlink:href="#aJ"/><use transform="matrix(0.05,0,0,0.05,34.95,0)" xlink:href="#aH"/><use transform="matrix(0.05,0,0,0.05,44.95,0)" xlink:href="#an"/><use transform="matrix(0.05,0,0,0.05,53.95,0)" xlink:href="#ao"/><use transform="matrix(0.05,0,0,0.05,63.95,0)" xlink:href="#an"/><use transform="matrix(0.05,0,0,0.05,72.95,0)" xlink:href="#an"/><use transform="matrix(0.05,0,0,0.05,81.95,0)" xlink:href="#at"/><use transform="matrix(0.05,0,0,0.05,85.9,0)" xlink:href="#aD"/><use transform="matrix(0.05,0,0,0.05,95.9,0)" xlink:href="#as"/></g><g id="ac"><use transform="matrix(0.05,0,0,0.05,0,0)" xlink:href="#ao"/><use transform="matrix(0.05,0,0,0.05,10,0)" xlink:href="#as"/><use transform="matrix(0.05,0,0,0.05,20,0)" xlink:href="#aE"/><use transform="matrix(0.05,0,0,0.05,30,0)" xlink:href="#aH"/><use transform="matrix(0.05,0,0,0.05,40,0)" xlink:href="#an"/><use transform="matrix(0.05,0,0,0.05,49,0)" xlink:href="#ao"/><use transform="matrix(0.05,0,0,0.05,59,0)" xlink:href="#an"/><use transform="matrix(0.05,0,0,0.05,68,0)" xlink:href="#an"/><use transform="matrix(0.05,0,0,0.05,77,0)" xlink:href="#at"/><use transform="matrix(0.05,0,0,0.05,80.95,0)" xlink:href="#aD"/><use transform="matrix(0.05,0,0,0.05,90.95,0)" xlink:href="#as"/></g></defs></g></svg>